<svg xmlns="http://www.w3.org/2000/svg" xmlns:xlink="http://www.w3.org/1999/xlink" width="500" zoomAndPan="magnify" viewBox="0 0 375 374.999991" height="500" preserveAspectRatio="xMidYMid meet" version="1.0"><defs><clipPath id="ab3cf16639"><path d="M 123 112.09375 L 252.621094 112.09375 L 252.621094 254 L 123 254 Z M 123 112.09375 " clip-rule="nonzero"/></clipPath></defs><rect x="-37.5" width="450" fill="#ffffff" y="-37.499999" height="449.999989" fill-opacity="1"/><rect x="-37.5" width="450" fill="#ffffff" y="-37.499999" height="449.999989" fill-opacity="1"/><g clip-path="url(#ab3cf16639)"><path fill="#4c7031" d="M 218.425781 141.050781 L 217.242188 140.160156 L 216.011719 139.324219 C 215.808594 139.1875 215.605469 139.042969 215.394531 138.914062 L 214.761719 138.527344 C 214.339844 138.269531 213.921875 138.003906 213.488281 137.761719 C 212.617188 137.296875 211.757812 136.792969 210.859375 136.386719 C 210.410156 136.171875 209.96875 135.949219 209.511719 135.75 L 208.140625 135.179688 C 204.472656 133.667969 200.574219 132.707031 196.617188 132.253906 C 192.65625 131.785156 188.636719 131.933594 184.699219 132.558594 C 184.203125 132.621094 183.71875 132.738281 183.226562 132.832031 C 182.738281 132.9375 182.246094 133.019531 181.761719 133.140625 C 180.800781 133.398438 179.820312 133.613281 178.875 133.933594 C 178.402344 134.085938 177.921875 134.226562 177.449219 134.390625 C 177.121094 134.511719 176.769531 134.566406 176.417969 134.558594 C 154.179688 134.019531 135.558594 157.4375 143.230469 184.941406 C 143.347656 185.367188 143.9375 185.425781 144.128906 185.027344 C 147.339844 178.324219 155.472656 176.082031 163.875 171.472656 C 172.777344 166.589844 181.980469 159.050781 185.945312 140.726562 C 185.960938 140.65625 185.972656 140.582031 185.988281 140.511719 C 186.117188 139.734375 185.308594 139.136719 184.613281 139.507812 C 183.882812 139.898438 183.15625 140.300781 182.4375 140.710938 C 180.621094 141.75 178.832031 142.84375 177.074219 143.984375 C 176.191406 144.554688 175.316406 145.136719 174.449219 145.726562 C 173.582031 146.320312 172.722656 146.925781 171.867188 147.539062 C 170.160156 148.765625 168.484375 150.035156 166.835938 151.347656 C 165.191406 152.65625 163.585938 154.015625 162.023438 155.429688 C 160.460938 156.84375 158.949219 158.3125 157.527344 159.863281 C 156.8125 160.640625 156.125 161.4375 155.46875 162.261719 C 155.105469 162.722656 154.753906 163.195312 154.414062 163.675781 C 154.375 163.730469 154.289062 163.675781 154.324219 163.617188 C 154.625 163.105469 154.941406 162.609375 155.273438 162.117188 C 155.863281 161.238281 156.496094 160.382812 157.152344 159.546875 C 158.464844 157.875 159.875 156.28125 161.335938 154.734375 C 162.800781 153.1875 164.316406 151.691406 165.875 150.242188 C 167.433594 148.789062 169.027344 147.375 170.660156 146.003906 C 171.476562 145.316406 172.296875 144.636719 173.132812 143.96875 C 173.964844 143.300781 174.804688 142.644531 175.65625 141.996094 C 176.808594 141.113281 177.980469 140.253906 179.171875 139.414062 L 179.292969 139.367188 C 179.703125 139.210938 180.121094 139.074219 180.535156 138.929688 C 181.355469 138.617188 182.210938 138.40625 183.054688 138.152344 C 183.476562 138.03125 183.910156 137.945312 184.335938 137.84375 C 184.765625 137.746094 185.191406 137.628906 185.628906 137.5625 C 189.089844 136.90625 192.648438 136.660156 196.179688 136.976562 C 199.707031 137.273438 203.21875 138.019531 206.558594 139.28125 L 207.808594 139.757812 C 208.222656 139.921875 208.625 140.117188 209.035156 140.292969 C 209.863281 140.636719 210.644531 141.066406 211.445312 141.460938 C 211.839844 141.671875 212.222656 141.902344 212.613281 142.117188 L 213.195312 142.449219 C 213.390625 142.5625 213.574219 142.6875 213.761719 142.804688 L 214.894531 143.527344 L 215.992188 144.300781 C 221.796875 148.484375 226.441406 154.3125 229.238281 160.957031 C 232.039062 167.597656 232.984375 175.023438 231.886719 182.179688 L 231.667969 183.519531 L 231.382812 184.847656 L 231.242188 185.511719 L 231.0625 186.167969 L 230.707031 187.480469 L 230.285156 188.773438 C 230.214844 188.988281 230.148438 189.207031 230.074219 189.421875 L 229.832031 190.054688 L 229.34375 191.328125 L 228.789062 192.574219 L 228.511719 193.195312 L 228.203125 193.804688 L 227.589844 195.023438 L 226.914062 196.207031 C 226.796875 196.402344 226.691406 196.605469 226.570312 196.796875 L 226.203125 197.371094 C 225.25 198.925781 224.140625 200.371094 222.976562 201.777344 C 220.492188 204.730469 217.554688 207.304688 214.300781 209.414062 C 215.015625 209.628906 215.71875 209.847656 216.414062 210.066406 C 219.398438 208.117188 222.136719 205.785156 224.519531 203.117188 C 225.785156 201.679688 227.003906 200.183594 228.058594 198.578125 L 228.464844 197.984375 C 228.597656 197.785156 228.71875 197.574219 228.84375 197.371094 L 229.597656 196.144531 L 230.289062 194.878906 L 230.632812 194.242188 L 230.945312 193.59375 L 231.570312 192.292969 L 232.128906 190.960938 L 232.40625 190.292969 C 232.492188 190.070312 232.570312 189.84375 232.652344 189.613281 L 233.140625 188.253906 L 233.5625 186.871094 L 233.773438 186.175781 L 233.945312 185.472656 L 234.292969 184.066406 L 234.570312 182.644531 C 235.976562 175.035156 235.214844 167.007812 232.390625 159.710938 C 229.578125 152.410156 224.703125 145.867188 218.425781 141.050781 Z M 252.289062 219.679688 C 230.78125 257.570312 185.347656 262.820312 161.953125 238.363281 C 161.582031 237.976562 161.144531 237.65625 160.65625 237.433594 C 159.972656 237.101562 159.300781 236.738281 158.625 236.394531 C 158.382812 236.273438 158.140625 236.152344 157.902344 236.023438 C 156.800781 235.433594 155.734375 234.773438 154.652344 234.148438 C 154 233.757812 153.375 233.320312 152.738281 232.910156 C 152.109375 232.484375 151.460938 232.085938 150.859375 231.625 C 150.589844 231.429688 150.328125 231.234375 150.0625 231.039062 C 145.449219 227.617188 141.230469 223.652344 137.675781 219.152344 C 133.898438 214.417969 130.734375 209.195312 128.414062 203.625 L 127.550781 201.539062 C 127.277344 200.835938 127.042969 200.117188 126.789062 199.410156 C 126.257812 198 125.875 196.539062 125.4375 195.101562 C 125.238281 194.375 125.078125 193.636719 124.894531 192.910156 L 124.632812 191.8125 C 124.542969 191.445312 124.484375 191.074219 124.414062 190.703125 L 123.992188 188.484375 L 123.679688 186.253906 C 122.121094 174.320312 123.949219 162.03125 128.820312 151.140625 C 133.675781 140.246094 141.542969 130.769531 151.296875 124.078125 L 153.140625 122.84375 L 155.035156 121.695312 L 155.984375 121.125 L 156.960938 120.605469 L 158.914062 119.5625 L 160.914062 118.621094 C 161.246094 118.464844 161.578125 118.304688 161.914062 118.152344 L 162.9375 117.734375 L 164.980469 116.902344 L 167.0625 116.164062 L 168.105469 115.800781 L 169.160156 115.488281 L 171.277344 114.867188 L 173.421875 114.347656 C 173.777344 114.265625 174.132812 114.167969 174.492188 114.097656 L 175.574219 113.890625 C 178.453125 113.292969 181.378906 112.988281 184.300781 112.796875 C 196.019531 112.121094 207.824219 114.847656 218.054688 120.367188 C 228.292969 125.882812 236.984375 134.207031 242.742188 144.226562 C 243.125 144.839844 243.453125 145.480469 243.792969 146.117188 C 244.125 146.757812 244.488281 147.382812 244.792969 148.039062 C 245.398438 149.347656 246.042969 150.636719 246.5625 151.980469 C 247.117188 153.3125 247.636719 154.65625 248.082031 156.023438 C 248.539062 157.386719 248.953125 158.765625 249.3125 160.160156 C 250.765625 165.722656 251.445312 171.476562 251.332031 177.207031 C 251.277344 171.476562 250.421875 165.769531 248.8125 160.296875 C 248.417969 158.925781 247.964844 157.574219 247.472656 156.238281 C 246.992188 154.894531 246.433594 153.585938 245.847656 152.289062 C 245.296875 150.976562 244.621094 149.71875 243.988281 148.449219 C 243.667969 147.816406 243.289062 147.210938 242.945312 146.589844 C 242.589844 145.976562 242.25 145.351562 241.855469 144.761719 C 235.898438 135.082031 227.160156 127.238281 217.101562 122.207031 C 207.042969 117.164062 195.636719 114.917969 184.515625 115.898438 C 181.742188 116.167969 178.972656 116.535156 176.265625 117.1875 L 175.246094 117.410156 C 174.90625 117.488281 174.574219 117.589844 174.238281 117.679688 L 172.226562 118.230469 L 170.246094 118.878906 L 169.253906 119.207031 L 168.28125 119.582031 L 166.339844 120.332031 L 164.433594 121.175781 L 163.484375 121.601562 C 163.171875 121.75 162.863281 121.914062 162.554688 122.070312 L 160.699219 123.011719 L 158.898438 124.046875 L 157.996094 124.5625 L 157.121094 125.125 L 155.378906 126.25 L 153.691406 127.457031 C 144.757812 133.996094 137.742188 143.019531 133.570312 153.1875 C 129.390625 163.351562 128.089844 174.617188 129.824219 185.363281 L 130.164062 187.375 L 130.605469 189.367188 C 130.683594 189.699219 130.746094 190.03125 130.832031 190.359375 L 131.101562 191.34375 C 131.289062 191.996094 131.449219 192.65625 131.652344 193.304688 C 132.089844 194.589844 132.464844 195.898438 132.984375 197.15625 C 133.238281 197.785156 133.460938 198.425781 133.730469 199.050781 L 134.5625 200.90625 C 136.796875 205.851562 139.773438 210.425781 143.257812 214.535156 C 145.613281 217.339844 148.261719 219.882812 151.109375 222.167969 C 152.457031 223.246094 153.84375 224.269531 155.269531 225.230469 C 155.8125 225.628906 156.398438 225.957031 156.964844 226.316406 C 157.0625 226.371094 157.15625 226.433594 157.25 226.492188 C 157.726562 226.785156 158.195312 227.089844 158.683594 227.359375 C 159.871094 227.988281 161.019531 228.679688 162.242188 229.230469 C 162.847656 229.515625 163.445312 229.816406 164.054688 230.09375 L 164.242188 230.167969 C 166.433594 230.539062 168.625 230.871094 170.824219 231.160156 C 172.441406 231.375 174.0625 231.570312 175.683594 231.746094 C 177.304688 231.917969 178.925781 232.074219 180.550781 232.207031 C 183.796875 232.476562 187.046875 232.667969 190.300781 232.777344 C 193.550781 232.882812 196.808594 232.898438 200.058594 232.804688 C 203.308594 232.710938 206.558594 232.5 209.78125 232.109375 C 211.394531 231.910156 213 231.667969 214.59375 231.355469 C 215.480469 231.179688 216.363281 230.984375 217.234375 230.761719 C 217.339844 230.738281 217.308594 230.582031 217.203125 230.601562 C 216.316406 230.753906 215.425781 230.878906 214.535156 230.988281 C 212.933594 231.175781 211.328125 231.296875 209.71875 231.367188 C 206.503906 231.507812 203.28125 231.46875 200.070312 231.316406 C 196.859375 231.160156 193.652344 230.902344 190.457031 230.550781 C 187.261719 230.195312 184.078125 229.765625 180.910156 229.253906 C 179.324219 228.996094 177.742188 228.722656 176.164062 228.429688 C 174.589844 228.136719 173.015625 227.824219 171.449219 227.492188 C 168.316406 226.832031 165.199219 226.09375 162.125 225.261719 C 160.902344 224.929688 159.683594 224.585938 158.472656 224.222656 C 158.261719 224.160156 158.085938 224.058594 157.941406 223.933594 L 157.941406 223.929688 C 157.28125 223.355469 157.273438 222.238281 158.074219 221.667969 C 158.117188 221.636719 158.160156 221.609375 158.203125 221.578125 C 158.253906 221.542969 158.304688 221.511719 158.355469 221.480469 C 162.910156 218.554688 167.246094 216.242188 171.386719 214.449219 C 171.539062 214.382812 171.683594 214.320312 171.835938 214.253906 C 189.421875 206.765625 203.46875 208.574219 215.445312 212.03125 C 215.769531 212.125 216.09375 212.21875 216.417969 212.316406 C 217.191406 212.546875 217.953125 212.78125 218.707031 213.023438 C 231.25 217.015625 241.535156 222.105469 251.414062 218.625 C 252.050781 218.398438 252.621094 219.089844 252.289062 219.679688 " fill-opacity="1" fill-rule="nonzero"/></g><path fill="#4c7031" d="M 162.375 211.277344 C 162.351562 211.273438 162.03125 211.203125 161.480469 210.617188 L 162.375 211.277344 " fill-opacity="1" fill-rule="nonzero"/></svg>